<svg width="151" height="23" viewBox="0 0 151 23" fill="none" xmlns="http://www.w3.org/2000/svg">
<g clip-path="url(#clip0_285_1448)">
<path d="M145.336 8.22033C145.317 8.19945 145.294 8.18274 145.269 8.17127C145.243 8.15981 145.216 8.15386 145.188 8.15381H141.098C141.06 8.15374 141.022 8.16496 140.989 8.1861C140.957 8.20723 140.932 8.23736 140.916 8.27278C140.901 8.30821 140.896 8.34738 140.902 8.38551C140.909 8.42363 140.926 8.45904 140.952 8.48739L146.339 14.326C146.348 14.3359 146.356 14.3465 146.363 14.3578L148.689 11.9592L145.336 8.22033Z" fill="white"/>
<path d="M146.342 14.5899L139.587 22.2166C139.561 22.2452 139.545 22.2804 139.539 22.318C139.534 22.3557 139.539 22.3942 139.555 22.4289C139.57 22.4636 139.595 22.4932 139.627 22.514C139.659 22.5347 139.696 22.5459 139.734 22.5462H143.715C143.743 22.5463 143.772 22.5402 143.798 22.5282C143.824 22.5162 143.848 22.4986 143.866 22.4767L148.674 16.8505L146.367 14.5552C146.36 14.5676 146.352 14.5793 146.342 14.5899Z" fill="white"/>
<path d="M150.708 14.2072L148.698 11.9575L150.714 14.2062C150.746 14.2424 150.763 14.2887 150.763 14.3367C150.763 14.3848 150.746 14.4311 150.714 14.4673L148.678 16.85L150.711 14.4673C150.742 14.4308 150.759 14.3845 150.758 14.3367C150.757 14.2889 150.74 14.2429 150.708 14.2072Z" fill="#060C13"/>
<path d="M150.706 14.2062L148.689 11.9575L146.363 14.3561C146.381 14.3863 146.39 14.4205 146.39 14.4554C146.39 14.4902 146.381 14.5245 146.363 14.5547L148.67 16.85L150.706 14.4673C150.737 14.4311 150.755 14.3848 150.755 14.3367C150.755 14.2887 150.737 14.2424 150.706 14.2062Z" fill="#4F8771"/>
</g>
<g clip-path="url(#clip1_285_1448)">
<path d="M136.698 8.22033C136.679 8.19945 136.657 8.18274 136.631 8.17127C136.606 8.15981 136.578 8.15386 136.55 8.15381H132.461C132.422 8.15374 132.384 8.16496 132.352 8.1861C132.319 8.20723 132.294 8.23736 132.278 8.27278C132.263 8.30821 132.258 8.34738 132.265 8.38551C132.271 8.42363 132.288 8.45904 132.315 8.48739L137.702 14.326C137.71 14.3359 137.718 14.3465 137.725 14.3578L140.052 11.9592L136.698 8.22033Z" fill="white"/>
<path d="M137.705 14.5899L130.949 22.2166C130.924 22.2452 130.907 22.2804 130.902 22.318C130.896 22.3557 130.901 22.3942 130.917 22.4289C130.932 22.4636 130.958 22.4932 130.99 22.514C131.021 22.5347 131.059 22.5459 131.097 22.5462H135.077C135.106 22.5463 135.134 22.5402 135.16 22.5282C135.187 22.5162 135.21 22.4986 135.229 22.4767L140.036 16.8505L137.73 14.5552C137.723 14.5676 137.714 14.5793 137.705 14.5899Z" fill="white"/>
<path d="M142.07 14.2072L140.06 11.9575L142.076 14.2062C142.108 14.2424 142.125 14.2887 142.125 14.3367C142.125 14.3848 142.108 14.4311 142.076 14.4673L140.04 16.85L142.073 14.4673C142.104 14.4308 142.121 14.3845 142.12 14.3367C142.12 14.2889 142.102 14.2429 142.07 14.2072Z" fill="#060C13"/>
<path d="M142.068 14.2062L140.052 11.9575L137.726 14.3561C137.743 14.3863 137.752 14.4205 137.752 14.4554C137.752 14.4902 137.743 14.5245 137.726 14.5547L140.032 16.85L142.068 14.4673C142.1 14.4311 142.117 14.3848 142.117 14.3367C142.117 14.2887 142.1 14.2424 142.068 14.2062Z" fill="#4F8771"/>
</g>
<path d="M6.40908 22.5854C9.26628 22.5854 12.1209 21.0148 12.1209 18.1472C12.1209 16.8476 11.5499 14.8561 8.39281 14.0406L6.13809 13.4355C5.32513 13.254 4.63582 12.8304 4.63582 12.107C4.63582 11.2309 5.38827 10.5969 6.46959 10.5969C7.39173 10.5969 8.20926 11.1199 8.31965 11.9693C8.33378 12.078 8.4212 12.1675 8.53086 12.1675H11.4716C11.5805 12.1675 11.6696 12.0785 11.6663 11.9696C11.5772 8.97297 8.81859 7.7583 6.37751 7.7583C3.31246 7.7583 1.14719 9.75243 1.14719 11.9544C1.14719 13.7354 1.96015 15.427 5.11465 16.2715L6.97736 16.7556C8.02974 16.9976 8.62959 17.3606 8.62959 18.1446C8.62959 19.0496 7.72718 19.7441 6.34594 19.7441C4.9737 19.7441 4.14921 18.9591 4.04253 18.0691C4.02948 17.9603 3.94181 17.871 3.83215 17.871H0.960382C0.849167 17.871 0.759234 17.9631 0.766079 18.0741C0.944763 20.9719 3.67818 22.5854 6.40908 22.5854Z" fill="white"/>
<path d="M20.5998 22.5854C22.9588 22.5854 24.8935 21.5667 26.1866 20.0214C26.2568 19.9374 26.2423 19.8126 26.1567 19.7444L23.9993 18.0269C23.9145 17.9594 23.7916 17.9728 23.718 18.0524C22.9877 18.8415 21.8509 19.3232 20.6604 19.3232C18.2241 19.3232 16.4824 17.5106 16.4824 15.156C16.4824 12.7699 18.2267 11.0205 20.6604 11.0205C21.8509 11.0205 22.9877 11.5045 23.7179 12.2917C23.7916 12.3711 23.9143 12.3844 23.9991 12.3169L26.1567 10.5993C26.2423 10.5311 26.2568 10.4063 26.1866 10.3223C24.8935 8.77696 22.9588 7.7583 20.5998 7.7583C16.5403 7.7583 12.9648 10.6864 12.9648 15.156C12.9648 19.6284 16.5429 22.5854 20.5998 22.5854Z" fill="white"/>
<path d="M37.7317 9.39617C37.7317 9.59529 37.4509 9.68385 37.3187 9.5349C36.3098 8.39765 34.6826 7.7583 33.0118 7.7583C29.0443 7.7583 26.1582 10.8994 26.1582 15.156C26.1582 19.5337 29.1654 22.5854 32.9224 22.5854C34.6729 22.5854 36.3084 21.8112 37.3183 20.5974C37.4469 20.4428 37.7317 20.5293 37.7317 20.7304V22.0238C37.7317 22.1334 37.8206 22.2223 37.9303 22.2223H41.0192C41.1288 22.2223 41.2177 22.1334 41.2177 22.0238V8.31991C41.2177 8.21025 41.1288 8.12135 41.0192 8.12135H37.9303C37.8206 8.12135 37.7317 8.21025 37.7317 8.31991V9.39617ZM33.6432 19.3258C31.3596 19.3258 29.6442 17.4238 29.6442 15.1587C29.6442 12.8936 31.3569 11.0231 33.6117 11.0231C35.6848 11.0231 37.6712 12.7436 37.6712 15.1587C37.6712 17.5132 35.8085 19.3258 33.6432 19.3258Z" fill="white"/>
<path d="M94.9876 9.39617C94.9876 9.59529 94.7068 9.68385 94.5746 9.5349C93.5656 8.39765 91.9385 7.7583 90.2677 7.7583C86.3002 7.7583 83.4141 10.8994 83.4141 15.156C83.4141 19.5337 86.4212 22.5854 90.1782 22.5854C91.9288 22.5854 93.5643 21.8112 94.5741 20.5974C94.7027 20.4428 94.9876 20.5293 94.9876 20.7304V22.0238C94.9876 22.1334 95.0765 22.2223 95.1861 22.2223H98.275C98.3847 22.2223 98.4736 22.1334 98.4736 22.0238V8.31991C98.4736 8.21025 98.3847 8.12135 98.275 8.12135H95.1861C95.0765 8.12135 94.9876 8.21025 94.9876 8.31991V9.39617ZM90.8991 19.3258C88.6154 19.3258 86.9001 17.4238 86.9001 15.1587C86.9001 12.8936 88.6128 11.0231 90.8675 11.0231C92.9407 11.0231 94.9271 12.7436 94.9271 15.1587C94.9271 17.5132 93.0644 19.3258 90.8991 19.3258Z" fill="white"/>
<path d="M46.1086 22.227C46.2183 22.227 46.3072 22.1381 46.3072 22.0285V0.652172C46.3072 0.542511 46.2183 0.453613 46.1086 0.453613H43.0169C42.9073 0.453613 42.8184 0.542511 42.8184 0.652172V22.0285C42.8184 22.1381 42.9073 22.227 43.0169 22.227H46.1086Z" fill="white"/>
<path d="M62.3483 15.0399C62.3483 10.6307 59.1912 7.76318 55.1948 7.76318C51.1668 7.76318 47.8281 10.6623 47.8281 15.1609C47.8281 19.5701 51.0142 22.5903 55.1948 22.5903C57.6828 22.5903 61.1392 21.2377 62.2097 18.1317C62.2529 18.0064 62.1577 17.8785 62.0251 17.8785H59.0171C58.9416 17.8785 58.8731 17.9218 58.8368 17.988C58.1592 19.2237 56.8681 19.4175 55.4079 19.4175C53.3893 19.4175 51.9249 18.4448 51.4625 16.6339C51.4315 16.5125 51.5257 16.3974 51.651 16.3974H62.1018C62.2075 16.3974 62.2947 16.3146 62.3004 16.209C62.3241 15.7729 62.3483 15.3832 62.3483 15.0399ZM51.6449 13.9534C51.5199 13.9534 51.4258 13.8387 51.4556 13.7173C51.94 11.7404 53.4282 10.8728 55.2211 10.8728C57.1007 10.8728 58.5619 11.9332 58.8586 13.7338C58.8779 13.8504 58.7854 13.9534 58.6673 13.9534H51.6449Z" fill="white"/>
<path d="M68.7284 22.5854C71.5856 22.5854 74.4402 21.0148 74.4402 18.1472C74.4402 16.8476 73.8693 14.8561 70.7121 14.0406L68.4574 13.4355C67.6445 13.254 66.9552 12.8304 66.9552 12.107C66.9552 11.2309 67.7076 10.5969 68.7889 10.5969C69.7111 10.5969 70.5286 11.1199 70.639 11.9693C70.6531 12.078 70.7405 12.1675 70.8502 12.1675H73.7909C73.8999 12.1675 73.9889 12.0785 73.9857 11.9696C73.8966 8.97297 71.1379 7.7583 68.6968 7.7583C65.6318 7.7583 63.4665 9.75243 63.4665 11.9544C63.4665 13.7354 64.2769 15.427 67.434 16.2715L69.2967 16.7556C70.3491 16.9976 70.9516 17.3606 70.9516 18.1446C70.9516 19.0496 70.0491 19.7441 68.6679 19.7441C67.2957 19.7441 66.4712 18.9591 66.3645 18.0691C66.3514 17.9603 66.2638 17.871 66.1541 17.871H63.2797C63.1685 17.871 63.0786 17.9631 63.0854 18.0741C63.2641 20.9719 65.9975 22.5854 68.7284 22.5854Z" fill="white"/>
<path d="M80.9258 8.12236C80.8161 8.12236 80.7272 8.03346 80.7272 7.9238V3.12776C80.7272 3.0181 80.6383 2.9292 80.5287 2.9292H77.4372C77.3275 2.9292 77.2386 3.0181 77.2386 3.12776V7.9238C77.2386 8.03346 77.1497 8.12236 77.04 8.12236H74.9114C74.8018 8.12236 74.7129 8.21125 74.7129 8.32092V10.7019C74.7129 10.8116 74.8018 10.9005 74.9114 10.9005H77.04C77.1497 10.9005 77.2386 10.9894 77.2386 11.099V22.0248C77.2386 22.1344 77.3275 22.2233 77.4372 22.2233H80.5287C80.6383 22.2233 80.7272 22.1344 80.7272 22.0248V11.099C80.7272 10.9894 80.8161 10.9005 80.9258 10.9005H83.5043C83.6139 10.9005 83.7028 10.8116 83.7028 10.7019V8.32092C83.7028 8.21125 83.6139 8.12236 83.5043 8.12236H80.9258Z" fill="white"/>
<path d="M107.123 22.5854C109.482 22.5854 111.417 21.5667 112.71 20.0214C112.78 19.9374 112.766 19.8126 112.68 19.7444L110.523 18.0269C110.438 17.9594 110.315 17.9728 110.241 18.0524C109.511 18.8415 108.374 19.3232 107.184 19.3232C104.75 19.3232 103.006 17.5106 103.006 15.156C103.006 12.7699 104.75 11.0205 107.184 11.0205C108.374 11.0205 109.511 11.5045 110.241 12.2917C110.315 12.3711 110.438 12.3844 110.522 12.3169L112.68 10.5993C112.766 10.5311 112.78 10.4063 112.71 10.3223C111.417 8.77696 109.482 7.7583 107.123 7.7583C103.066 7.7583 99.4883 10.6864 99.4883 15.156C99.4883 19.6284 103.066 22.5854 107.123 22.5854Z" fill="white"/>
<path d="M120.314 14.6073C120.246 14.5309 120.247 14.4156 120.316 14.3406L125.719 8.49212C125.838 8.36414 125.745 8.1568 125.571 8.15883L121.479 8.20662C121.423 8.20727 121.37 8.23115 121.333 8.27246L117.628 12.3967C117.506 12.5321 117.281 12.4461 117.281 12.264V0.608227C117.281 0.498566 117.193 0.409668 117.083 0.409668H113.92C113.811 0.409668 113.722 0.498566 113.722 0.608227V22.3504C113.722 22.46 113.811 22.5489 113.92 22.5489H117.083C117.193 22.5489 117.281 22.46 117.281 22.3504V16.5741C117.281 16.3898 117.511 16.3049 117.631 16.4448L122.806 22.477C122.844 22.521 122.899 22.5463 122.957 22.5463H126.933C127.104 22.5463 127.195 22.3438 127.081 22.2157L120.314 14.6073Z" fill="white"/>
<defs>
<clipPath id="clip0_285_1448">
<rect width="11.2215" height="14.3945" fill="white" transform="translate(139.537 8.15381)"/>
</clipPath>
<clipPath id="clip1_285_1448">
<rect width="11.2215" height="14.3945" fill="white" transform="translate(130.899 8.15381)"/>
</clipPath>
</defs>
</svg>
